<svg xmlns="http://www.w3.org/2000/svg" viewBox="0 0 400 500" width="400" height="500">
<rect width="400" height="500" fill="#ffffff" stroke="none"></rect>
<rect x="270" y="205" width="46" height="98" rx="12" fill="white" stroke="black" stroke-width="4" stroke-linejoin="round" stroke-linecap="round"></rect>
<path d="M296 205 L220 165" fill="none" stroke="black" stroke-width="3"></path>
<circle cx="200" cy="150" r="58" fill="white" stroke="black" stroke-width="4" stroke-linejoin="round" stroke-linecap="round"></circle>
<circle cx="200" cy="150" r="40" fill="white" stroke="black" stroke-width="4" stroke-linejoin="round" stroke-linecap="round"></circle>
<circle cx="200" cy="150" r="30" fill="none" stroke="black" stroke-width="3"></circle>
<circle cx="188" cy="144" r="5" stroke="black" stroke-width="3" fill="black"></circle>
<circle cx="212" cy="144" r="5" stroke="black" stroke-width="3" fill="black"></circle>
<path d="M190 162 Q200 170 210 162" fill="none" stroke="black" stroke-width="3"></path>
<rect x="152" y="205" width="96" height="124" rx="30" fill="white" stroke="black" stroke-width="4" stroke-linejoin="round" stroke-linecap="round"></rect>
<rect x="116" y="220" width="28" height="84" rx="14" fill="white" stroke="black" stroke-width="4" stroke-linejoin="round" stroke-linecap="round"></rect>
<rect x="256" y="220" width="28" height="84" rx="14" fill="white" stroke="black" stroke-width="4" stroke-linejoin="round" stroke-linecap="round"></rect>
<circle cx="130" cy="304" r="15" fill="white" stroke="black" stroke-width="4" stroke-linejoin="round" stroke-linecap="round"></circle>
<circle cx="270" cy="304" r="15" fill="white" stroke="black" stroke-width="4" stroke-linejoin="round" stroke-linecap="round"></circle>
<rect x="164" y="329" width="30" height="92" rx="15" fill="white" stroke="black" stroke-width="4" stroke-linejoin="round" stroke-linecap="round"></rect>
<rect x="206" y="329" width="30" height="92" rx="15" fill="white" stroke="black" stroke-width="4" stroke-linejoin="round" stroke-linecap="round"></rect>
<circle cx="179" cy="421" r="16" fill="white" stroke="black" stroke-width="4" stroke-linejoin="round" stroke-linecap="round"></circle>
<circle cx="221" cy="421" r="16" fill="white" stroke="black" stroke-width="4" stroke-linejoin="round" stroke-linecap="round"></circle>
<rect x="170" y="250" width="60" height="50" rx="10" fill="white" stroke="black" stroke-width="4" stroke-linejoin="round" stroke-linecap="round"></rect>
<circle cx="185" cy="275" r="8" fill="white" stroke="black" stroke-width="4" stroke-linejoin="round" stroke-linecap="round"></circle>
<circle cx="215" cy="275" r="8" fill="white" stroke="black" stroke-width="4" stroke-linejoin="round" stroke-linecap="round"></circle>
<circle cx="60" cy="420" r="70" fill="white" stroke="black" stroke-width="4" stroke-linejoin="round" stroke-linecap="round"></circle>
<circle cx="42" cy="408" r="12" fill="white" stroke="black" stroke-width="4" stroke-linejoin="round" stroke-linecap="round"></circle>
<circle cx="78" cy="428" r="9" fill="white" stroke="black" stroke-width="4" stroke-linejoin="round" stroke-linecap="round"></circle>
<path d="M335 61 v18 M326 70 h18" stroke="black" stroke-width="3" fill="none"/>
<path d="M60 74 v12 M54 80 h12" stroke="black" stroke-width="3" fill="none"/>
<path d="M345 294 v12 M339 300 h12" stroke="black" stroke-width="3" fill="none"/>
<path d="M340 159 v12 M334 165 h12" stroke="black" stroke-width="3" fill="none"/>
<path d="M70 194 v12 M64 200 h12" stroke="black" stroke-width="3" fill="none"/>
</svg>
