<svg xmlns="http://www.w3.org/2000/svg" viewBox="0 0 400 500" width="400" height="500">
<rect width="400" height="500" fill="#ffffff" stroke="none"></rect>
<ellipse cx="278" cy="250" rx="34" ry="52" transform="rotate(90 278 250)" fill="white" stroke="black" stroke-width="4" stroke-linejoin="round" stroke-linecap="round"></ellipse>
<ellipse cx="255" cy="305" rx="34" ry="52" transform="rotate(135 255 305)" fill="white" stroke="black" stroke-width="4" stroke-linejoin="round" stroke-linecap="round"></ellipse>
<ellipse cx="200" cy="328" rx="34" ry="52" transform="rotate(180 200 328)" fill="white" stroke="black" stroke-width="4" stroke-linejoin="round" stroke-linecap="round"></ellipse>
<ellipse cx="145" cy="305" rx="34" ry="52" transform="rotate(225 145 305)" fill="white" stroke="black" stroke-width="4" stroke-linejoin="round" stroke-linecap="round"></ellipse>
<ellipse cx="122" cy="250" rx="34" ry="52" transform="rotate(270 122 250)" fill="white" stroke="black" stroke-width="4" stroke-linejoin="round" stroke-linecap="round"></ellipse>
<ellipse cx="145" cy="195" rx="34" ry="52" transform="rotate(315 145 195)" fill="white" stroke="black" stroke-width="4" stroke-linejoin="round" stroke-linecap="round"></ellipse>
<ellipse cx="200" cy="172" rx="34" ry="52" transform="rotate(360 200 172)" fill="white" stroke="black" stroke-width="4" stroke-linejoin="round" stroke-linecap="round"></ellipse>
<ellipse cx="255" cy="195" rx="34" ry="52" transform="rotate(405 255 195)" fill="white" stroke="black" stroke-width="4" stroke-linejoin="round" stroke-linecap="round"></ellipse>
<circle cx="200" cy="250" r="26" fill="white" stroke="black" stroke-width="4" stroke-linejoin="round" stroke-linecap="round"></circle>
<path d="M200 328 v110" fill="none" stroke="black" stroke-width="3"></path>
<path d="M200 385 Q235 375 252 340 M200 445 Q170 445 158 420" fill="none" stroke="black" stroke-width="3"></path>
<circle cx="57" cy="70" r="5" fill="white" stroke="black" stroke-width="4" stroke-linejoin="round" stroke-linecap="round"></circle>
<path d="M340 61 v18 M331 70 h18" stroke="black" stroke-width="3" fill="none"/>
<path d="M330 420 h28 M344 406 v28" fill="none" stroke="black" stroke-width="3"></path>
</svg>
